# Blender 4.2.3 LTS
# www.blender.org
mtllib K31_casing.mtl
o Casing
v 0.000000 0.075731 -0.343195
v 0.000000 0.052951 0.453029
v 0.053614 0.053523 -0.343195
v 0.037506 0.037416 0.453029
v 0.075821 -0.000090 -0.343195
v 0.053041 -0.000090 0.453029
v 0.053614 -0.053704 -0.343195
v 0.037506 -0.037596 0.453029
v 0.000000 -0.075912 -0.343195
v 0.000000 -0.053132 0.453029
v -0.053614 -0.053704 -0.343195
v -0.037506 -0.037596 0.453029
v -0.075821 -0.000090 -0.343195
v -0.053041 -0.000090 0.453029
v -0.053614 0.053523 -0.343195
v -0.037506 0.037416 0.453029
v 0.000000 0.064358 0.301964
v 0.045572 0.045481 0.301964
v 0.064448 -0.000090 0.301964
v 0.045572 -0.045662 0.301964
v 0.000000 -0.064538 0.301964
v -0.045572 -0.045662 0.301964
v -0.064448 -0.000090 0.301964
v -0.045572 0.045481 0.301964
v 0.053614 0.053523 0.283768
v 0.075821 -0.000090 0.283768
v 0.053614 -0.053704 0.283768
v 0.000000 -0.075912 0.283768
v -0.053614 -0.053704 0.283768
v -0.075821 -0.000090 0.283768
v -0.053614 0.053523 0.283768
v 0.000000 0.075731 0.283768
v 0.045012 0.044922 0.453029
v 0.000000 0.063566 0.453029
v 0.063657 -0.000090 0.453029
v 0.045012 -0.045103 0.453029
v 0.000000 -0.063747 0.453029
v -0.045012 -0.045103 0.453029
v -0.063657 -0.000090 0.453029
v -0.045012 0.044922 0.453029
v 0.037506 0.035716 0.305961
v 0.000000 0.051252 0.305961
v 0.053041 -0.001790 0.305961
v 0.037506 -0.039296 0.305961
v 0.000000 -0.054831 0.305961
v -0.037506 -0.039296 0.305961
v -0.053041 -0.001790 0.305961
v -0.037506 0.035716 0.305961
v 0.053614 0.053523 -0.328955
v 0.075821 -0.000090 -0.328955
v 0.053614 -0.053704 -0.328955
v 0.000000 -0.075912 -0.328955
v -0.053614 -0.053704 -0.328955
v -0.075821 -0.000090 -0.328955
v -0.053614 0.053523 -0.328955
v 0.000000 0.075731 -0.328955
v 0.000000 0.068033 -0.315574
v 0.048170 0.048080 -0.315574
v 0.068123 -0.000090 -0.315574
v 0.048170 -0.048261 -0.315574
v 0.000000 -0.068214 -0.315574
v -0.048170 -0.048261 -0.315574
v -0.068123 -0.000090 -0.315574
v -0.048170 0.048080 -0.315574
v 0.000000 0.075731 -0.305901
v 0.053614 0.053523 -0.305901
v 0.075821 -0.000090 -0.305901
v 0.053614 -0.053704 -0.305901
v 0.000000 -0.075912 -0.305901
v -0.053614 -0.053704 -0.305901
v -0.075821 -0.000090 -0.305901
v -0.053614 0.053523 -0.305901
vn -0.3827 0.9239 -0.0000
vn 0.9239 0.3827 -0.0000
vn 0.9239 -0.3827 -0.0000
vn 0.3827 -0.9239 -0.0000
vn -0.3827 -0.9239 -0.0000
vn -0.9239 -0.3827 -0.0000
vn -0.9239 0.3827 -0.0000
vn 0.9239 -0.3827 0.0044
vn -0.0000 -0.0000 -1.0000
vn 0.3827 0.9239 -0.0000
vn 0.3827 0.9239 0.0048
vn -0.9239 0.3827 0.0048
vn -0.9239 -0.3827 0.0048
vn -0.3827 -0.9239 0.0048
vn 0.3827 -0.9239 0.0048
vn 0.9239 -0.3827 0.0048
vn 0.9239 0.3827 0.0048
vn -0.3827 0.9239 0.0048
vn 0.3314 0.8001 0.5001
vn -0.8001 0.3314 0.5001
vn -0.8001 -0.3314 0.5001
vn -0.3314 -0.8001 0.5001
vn 0.3314 -0.8001 0.5001
vn 0.8001 -0.3314 0.5001
vn 0.8001 0.3314 0.5001
vn -0.3314 0.8001 0.5001
vn -0.0000 -0.0000 1.0000
vn 0.3827 0.9238 -0.0107
vn -0.9239 0.3827 -0.0044
vn -0.3827 -0.9238 0.0107
vn 0.3827 -0.9238 0.0107
vn 0.9239 0.3827 -0.0044
vn -0.3827 0.9238 -0.0107
vn -0.9239 -0.3827 0.0044
vn 0.3379 0.8158 0.4693
vn -0.8158 0.3379 0.4693
vn -0.8158 -0.3379 0.4693
vn -0.3379 -0.8158 0.4693
vn 0.3379 -0.8158 0.4693
vn 0.8158 -0.3379 0.4693
vn 0.8158 0.3379 0.4693
vn -0.3379 0.8158 0.4693
vn -0.3083 0.7443 -0.5924
vn 0.7443 0.3083 -0.5924
vn 0.7443 -0.3083 -0.5924
vn 0.3083 -0.7443 -0.5924
vn -0.3083 -0.7443 -0.5924
vn -0.7443 -0.3083 -0.5924
vn -0.7443 0.3083 -0.5924
vn 0.3083 0.7443 -0.5924
vt 0.125000 0.509806
vt 0.000000 0.509806
vt 0.000000 0.500000
vt 0.125000 0.500000
vt 0.875000 0.509806
vt 0.750000 0.509806
vt 0.750000 0.500000
vt 0.875000 0.500000
vt 0.625000 0.509806
vt 0.625000 0.500000
vt 0.500000 0.509806
vt 0.500000 0.500000
vt 0.375000 0.509806
vt 0.375000 0.500000
vt 0.250000 0.509806
vt 0.250000 0.500000
vt 0.108594 0.391406
vt 0.050022 0.250000
vt 0.750000 0.490000
vt 0.919706 0.419706
vt 0.990000 0.250000
vt 0.919706 0.080294
vt 0.750000 0.010000
vt 0.580294 0.080294
vt 0.510000 0.250000
vt 0.580294 0.419706
vt 1.000000 0.509806
vt 1.000000 0.500000
vt 1.000000 1.000000
vt 0.875000 1.000000
vt 0.875000 0.954588
vt 1.000000 0.954588
vt 0.250000 1.000000
vt 0.125000 1.000000
vt 0.125000 0.954588
vt 0.250000 0.954588
vt 0.375000 1.000000
vt 0.375000 0.954588
vt 0.500000 1.000000
vt 0.500000 0.954588
vt 0.625000 1.000000
vt 0.625000 0.954588
vt 0.750000 1.000000
vt 0.750000 0.954588
vt 0.000000 1.000000
vt 0.000000 0.954588
vt 0.875000 0.931736
vt 1.000000 0.931736
vt 0.125000 0.931736
vt 0.250000 0.931736
vt 0.375000 0.931736
vt 0.500000 0.931736
vt 0.625000 0.931736
vt 0.750000 0.931736
vt 0.000000 0.931736
vt 0.250000 0.449978
vt 0.391406 0.391406
vt 0.419706 0.419706
vt 0.250000 0.490000
vt 0.449978 0.250000
vt 0.490000 0.250000
vt 0.391406 0.108594
vt 0.419706 0.080294
vt 0.250000 0.050022
vt 0.250000 0.010000
vt 0.108594 0.108594
vt 0.080294 0.080294
vt 0.010000 0.250000
vt 0.080294 0.419706
vt 1.000000 0.519021
vt 0.875000 0.519021
vt 0.250000 0.519021
vt 0.125000 0.519021
vt 0.375000 0.519021
vt 0.500000 0.519021
vt 0.625000 0.519021
vt 0.750000 0.519021
vt 0.000000 0.519021
vt 0.125000 0.525681
vt 0.000000 0.525681
vt 0.875000 0.525681
vt 0.750000 0.525681
vt 0.625000 0.525681
vt 0.500000 0.525681
vt 0.375000 0.525681
vt 0.250000 0.525681
vt 1.000000 0.525681
s 0
usemtl 
f 55/1/1 56/2/1 1/3/1 15/4/1
f 49/5/2 50/6/2 5/7/2 3/8/2
f 50/6/3 51/9/3 7/10/3 5/7/3
f 51/9/4 52/11/4 9/12/4 7/10/4
f 52/11/5 53/13/5 11/14/5 9/12/5
f 53/13/6 54/15/6 13/16/6 11/14/6
f 54/15/7 55/1/7 15/4/7 13/16/7
f 16/17/8 14/18/8 47/18/8 48/17/8
f 1/19/9 3/20/9 5/21/9 7/22/9 9/23/9 11/24/9 13/25/9 15/26/9
f 56/27/10 49/5/10 3/8/10 1/28/10
f 34/29/11 33/30/11 18/31/11 17/32/11
f 39/33/12 40/34/12 24/35/12 23/36/12
f 38/37/13 39/33/13 23/36/13 22/38/13
f 37/39/14 38/37/14 22/38/14 21/40/14
f 36/41/15 37/39/15 21/40/15 20/42/15
f 35/43/16 36/41/16 20/42/16 19/44/16
f 33/30/17 35/43/17 19/44/17 18/31/17
f 40/34/18 34/45/18 17/46/18 24/35/18
f 17/32/19 18/31/19 25/47/19 32/48/19
f 23/36/20 24/35/20 31/49/20 30/50/20
f 22/38/21 23/36/21 30/50/21 29/51/21
f 21/40/22 22/38/22 29/51/22 28/52/22
f 20/42/23 21/40/23 28/52/23 27/53/23
f 19/44/24 20/42/24 27/53/24 26/54/24
f 18/31/25 19/44/25 26/54/25 25/47/25
f 24/35/26 17/46/26 32/55/26 31/49/26
f 2/56/27 4/57/27 33/58/27 34/59/27
f 4/57/27 6/60/27 35/61/27 33/58/27
f 6/60/27 8/62/27 36/63/27 35/61/27
f 8/62/27 10/64/27 37/65/27 36/63/27
f 10/64/27 12/66/27 38/67/27 37/65/27
f 12/66/27 14/18/27 39/68/27 38/67/27
f 14/18/27 16/17/27 40/69/27 39/68/27
f 16/17/27 2/56/27 34/59/27 40/69/27
f 42/56/27 48/17/27 47/18/27 46/66/27 45/64/27 44/62/27 43/60/27 41/57/27
f 12/66/28 10/64/28 45/64/28 46/66/28
f 8/62/29 6/60/29 43/60/29 44/62/29
f 4/57/30 2/56/30 42/56/30 41/57/30
f 2/56/31 16/17/31 48/17/31 42/56/31
f 14/18/32 12/66/32 46/66/32 47/18/32
f 10/64/33 8/62/33 44/62/33 45/64/33
f 6/60/34 4/57/34 41/57/34 43/60/34
f 57/70/35 58/71/35 49/5/35 56/27/35
f 63/72/36 64/73/36 55/1/36 54/15/36
f 62/74/37 63/72/37 54/15/37 53/13/37
f 61/75/38 62/74/38 53/13/38 52/11/38
f 60/76/39 61/75/39 52/11/39 51/9/39
f 59/77/40 60/76/40 51/9/40 50/6/40
f 58/71/41 59/77/41 50/6/41 49/5/41
f 64/73/42 57/78/42 56/2/42 55/1/42
f 72/79/43 65/80/43 57/78/43 64/73/43
f 66/81/44 67/82/44 59/77/44 58/71/44
f 67/82/45 68/83/45 60/76/45 59/77/45
f 68/83/46 69/84/46 61/75/46 60/76/46
f 69/84/47 70/85/47 62/74/47 61/75/47
f 70/85/48 71/86/48 63/72/48 62/74/48
f 71/86/49 72/79/49 64/73/49 63/72/49
f 65/87/50 66/81/50 58/71/50 57/70/50
f 32/48/10 25/47/10 66/81/10 65/87/10
f 30/50/7 31/49/7 72/79/7 71/86/7
f 29/51/6 30/50/6 71/86/6 70/85/6
f 28/52/5 29/51/5 70/85/5 69/84/5
f 27/53/4 28/52/4 69/84/4 68/83/4
f 26/54/3 27/53/3 68/83/3 67/82/3
f 25/47/2 26/54/2 67/82/2 66/81/2
f 31/49/1 32/55/1 65/80/1 72/79/1
